<?xml version="1.0" standalone="no"?><!DOCTYPE svg PUBLIC "-//W3C//DTD SVG 1.1//EN" "http://www.w3.org/Graphics/SVG/1.1/DTD/svg11.dtd"><svg class="icon" width="200px" height="200.00px" viewBox="0 0 1024 1024" version="1.1" xmlns="http://www.w3.org/2000/svg"><path d="M275.771077 487.424a39.384615 39.384615 0 0 1-39.384615-39.384615V287.507692c0-158.562462 123.667692-287.507692 275.692307-287.507692s275.692308 128.945231 275.692308 287.507692v160.452923a39.384615 39.384615 0 0 1-78.769231 0V287.507692C709.001846 172.425846 620.701538 78.769231 512.078769 78.769231c-108.544 0-196.923077 93.656615-196.923077 208.738461v160.531693a39.384615 39.384615 0 0 1-39.384615 39.384615zM512.078769 551.384615a39.384615 39.384615 0 0 0-39.384615 39.384616v157.538461a39.384615 39.384615 0 0 0 78.769231 0v-157.538461a39.384615 39.384615 0 0 0-39.384616-39.384616z"  /><path d="M512.078769 393.846154c152.024615 0 275.692308 123.667692 275.692308 275.692308s-123.667692 275.692308-275.692308 275.692307-275.692308-123.667692-275.692307-275.692307S360.054154 393.846154 512.078769 393.846154m0-78.769231a354.461538 354.461538 0 1 0 0 708.923077 354.461538 354.461538 0 0 0 0-708.923077z" /></svg>
