<?xml version="1.0" standalone="no"?><!DOCTYPE svg PUBLIC "-//W3C//DTD SVG 1.1//EN" "http://www.w3.org/Graphics/SVG/1.1/DTD/svg11.dtd"><svg class="icon" width="200px" height="200.00px" viewBox="0 0 1024 1024" version="1.1" xmlns="http://www.w3.org/2000/svg"><path d="M710.8622345 93.93608032a40.42054495 40.42054495 0 0 1 19.57509228 53.7015803l-50.69891135 108.67352178h148.11242459c51.85378428 0 94.06438193 42.15285352 94.06438194 94.06438193v489.37731043a94.12212524 94.12212524 0 0 1-94.12212607 94.06438192H196.0777255A94.12212524 94.12212524 0 0 1 101.95559943 839.75287476V350.37556433c0-51.91152842 42.15285352-94.06438193 94.12212607-94.06438193h136.44821035L281.88476699 147.63766062a40.42054495 40.42054495 0 0 1 14.32042164-50.81439881l5.19692734-2.88718149a40.42054495 40.42054495 0 0 1 53.70158111 19.51734815l63.5179985 136.1017488a40.65151904 40.65151904 0 0 1 2.42523331 6.81374927h170.1704935c0.63517978-2.30974502 1.44359116-4.61949087 2.48297581-6.81374926L657.16065339 113.45342847a40.42054495 40.42054495 0 0 1 53.70158111-19.51734815z m116.98860553 236.46018604H196.01998136a19.97929797 19.97929797 0 0 0-19.92155384 19.97929797v489.37731043c0 10.97129032 8.95026353 19.97929797 19.92155383 19.97929715h631.83085868c10.97129032 0 19.92155383-8.95026353 19.92155383-19.97929715V350.37556433a19.97929797 19.97929797 0 0 0-19.92155383-19.97929797zM332.93014072 538.79304642a57.74363553 57.74363553 0 1 1 0 115.48727105 57.74363553 57.74363553 0 0 1 0-115.48727105z m173.23090657 0a57.74363553 57.74363553 0 1 1 0 115.48727105 57.74363553 57.74363553 0 0 1 0-115.48727105z m173.23090577 0a57.74363553 57.74363553 0 1 1 0 115.48727105 57.74363553 57.74363553 0 0 1 0-115.48727105z" fill="#ffffff" /></svg>